Coordinates
version=1
nRows=32
nColumns=12
inDegrees=yes

Units are S.I. units (second, meters, Newtons, ...)
Angles are in degrees

endheader
time	SC_y	SC_z	SC_x	AC_y	AC_z	AC_x	GH_y	GH_z	GH_yy	EL_x	PS_y
       0.0              -23.49          34.83          77.42          47.01           5.53         -6.416          -56.5          87.95          77.32           78.3          61.17
   0.01359              -23.49          34.83          77.41          47.01          5.527         -6.414          -56.5          87.95          77.31          78.29          61.16
   0.02718              -23.49          34.82           77.4          47.01          5.525         -6.412         -56.49          87.94          77.29          78.29          61.16
   0.04077              -23.49          34.82           77.4          47.01          5.522          -6.41         -56.49          87.93          77.27          78.29          61.15
   0.05436               -23.5          34.82          77.39          47.01          5.519         -6.408         -56.48          87.92          77.25          78.28          61.15
   0.06795               -23.5          34.81          77.38           47.0          5.516         -6.406         -56.47          87.91          77.22          78.28          61.14
   0.08154               -23.5          34.81          77.37           47.0          5.513         -6.404         -56.47           87.9           77.2          78.27          61.14
   0.09513              -23.51          34.81          77.36           47.0          5.509         -6.401         -56.46          87.89          77.17          78.27          61.13
    0.1087              -23.51           34.8          77.35           47.0          5.505         -6.398         -56.45          87.87          77.14          78.26          61.12
    0.1223              -23.51           34.8          77.34           47.0          5.501         -6.396         -56.44          87.86          77.11          78.25          61.11
    0.1359              -23.52          34.79          77.33           47.0          5.497         -6.392         -56.44          87.85          77.08          78.25          61.11
    0.1495              -23.52          34.78          77.32           47.0          5.492         -6.389         -56.43          87.83          77.05          78.24           61.1
    0.1631              -23.53          34.78          77.31           47.0          5.487         -6.385         -56.42          87.82          77.01          78.23          61.09
    0.1767              -23.53          34.77          77.29           47.0          5.482         -6.382         -56.41           87.8          76.97          78.22          61.08
    0.1903              -23.54          34.76          77.28           47.0          5.476         -6.377         -56.39          87.78          76.92          78.21          61.07
    0.2039              -23.55          34.76          77.26           47.0           5.47         -6.373         -56.38          87.76          76.88           78.2          61.05
    0.2174              -23.55          34.75          77.24           47.0          5.463         -6.368         -56.37          87.74          76.83          78.19          61.04
     0.231              -23.56          34.74          77.22           47.0          5.455         -6.363         -56.35          87.71          76.77          78.18          61.02
    0.2446              -23.57          34.73           77.2           47.0          5.447         -6.357         -56.33          87.69          76.71          78.17          61.01
    0.2582              -23.58          34.72          77.18           47.0          5.438          -6.35         -56.32          87.66          76.64          78.15          60.99
    0.2718              -23.59           34.7          77.15           47.0          5.428         -6.343          -56.3          87.62          76.57          78.13          60.97
    0.2854               -23.6          34.69          77.12           47.0          5.417         -6.335         -56.27          87.59          76.48          78.12          60.95
     0.299              -23.61          34.68          77.09           47.0          5.405         -6.327         -56.25          87.55          76.39           78.1          60.93
    0.3126              -23.62          34.66          77.06           47.0          5.391         -6.317         -56.22          87.51          76.29          78.08           60.9
    0.3262              -23.64          34.64          77.02          46.99          5.376         -6.307         -56.19          87.46          76.18          78.05          60.87
    0.3398              -23.66          34.62          76.98          46.99           5.36         -6.295         -56.16          87.41          76.06          78.03          60.84
    0.3534              -23.67           34.6          76.93          46.99          5.341         -6.282         -56.12          87.35          75.92           78.0           60.8
    0.3669               -23.7          34.57          76.87          46.99           5.32         -6.267         -56.08          87.28          75.77          77.96          60.76
    0.3805              -23.72          34.54          76.81          46.99          5.297          -6.25         -56.03           87.2          75.59          77.92          60.72
    0.3941              -23.75          34.51          76.74          46.99           5.27         -6.231         -55.98          87.12          75.39          77.88          60.67
    0.4077              -23.78          34.47          76.66          46.99          5.239         -6.209         -55.92          87.02          75.16          77.83          60.61
    0.4213              -23.81          34.43          76.57          46.98          5.204         -6.184         -55.85           86.9           74.9          77.78          60.54
